<?xml version="1.0" encoding="utf-8"?>
<!-- Generator: Adobe Illustrator 21.1.0, SVG Export Plug-In . SVG Version: 6.00 Build 0)  -->
<svg version="1.1" id="Layer_1" xmlns="http://www.w3.org/2000/svg" xmlns:xlink="http://www.w3.org/1999/xlink" x="0px" y="0px"
	 viewBox="0 0 72.2 56.7" style="enable-background:new 0 0 72.2 56.7;" xml:space="preserve">
<path d="M49,16.2c-0.8-0.1-1.6-0.2-2.5-0.3v-3.1c0-1-0.8-1.9-1.8-2c-5.8-0.5-11.6-0.5-17.4,0c-1,0.1-1.8,0.9-1.8,2v3.1
	c-0.8,0.1-1.6,0.2-2.5,0.3c-1,0.1-1.7,1-1.7,1.9v9.1c1.4-0.2,2.9-0.5,4.4-0.6v-3.6c0-0.5,0.3-1,0.8-1.2c2-0.8,4.2-0.8,6.2,0
	c0.5,0.2,0.8,0.7,0.8,1.2v3c0.8,0,1.7,0,2.5,0c0.8,0,1.7,0,2.5,0v-3c0-0.5,0.3-1,0.8-1.2c2-0.8,4.2-0.8,6.2,0
	c0.5,0.2,0.8,0.7,0.8,1.2v3.6c1.5,0.2,2.9,0.4,4.4,0.6v-9.1C50.7,17.1,50,16.3,49,16.2z"/>
<path d="M54.4,40.1v-7.7c0-0.9-0.7-1.7-1.6-1.9c-11.1-2.2-22.5-2.2-33.6,0c-0.9,0.2-1.6,1-1.6,1.9v11.7c0,1.2,1,2.1,2.1,2.1h2.6
	c1.2,0,2.1-1,2.1-2.1v-2.8c3.8,0.5,7.7,0.8,11.5,0.8c3.8,0,7.7-0.3,11.5-0.8v2.8c0,1.2,1,2.1,2.1,2.1h2.6c1.2,0,2.1-1,2.1-2.1V40.1z
	"/>
</svg>
