<?xml version="1.0" encoding="utf-8"?>
<!-- Generator: Adobe Illustrator 21.1.0, SVG Export Plug-In . SVG Version: 6.00 Build 0)  -->
<svg version="1.1" id="Layer_1" xmlns="http://www.w3.org/2000/svg" xmlns:xlink="http://www.w3.org/1999/xlink" x="0px" y="0px"
	 viewBox="0 0 72.2 56.7" style="enable-background:new 0 0 72.2 56.7;" xml:space="preserve">
<style type="text/css">
	.st0{fill:#010101;}
</style>
<path class="st0" d="M43.4,22.3c-4.8,0-8.7,3.9-8.7,8.7s3.9,8.7,8.7,8.7c4.8,0,8.7-3.9,8.7-8.7S48.2,22.3,43.4,22.3z M55.3,11.8
	h-2.1c-1.5-3.7-1.5-5.3-5.2-5.3H37.4c-3.7,0-3.8,1.7-5.2,5.3H16.9c-4.3,0-7.7,3.5-7.7,7.7v22.9c0,4.3,3.5,7.7,7.7,7.7h38.4
	c4.3,0,7.7-3.5,7.7-7.7V19.5C63,15.2,59.6,11.8,55.3,11.8z M17.1,22.3c-1.5,0-2.7-1.2-2.7-2.7c0-1.5,1.2-2.7,2.7-2.7
	c1.5,0,2.7,1.2,2.7,2.7C19.8,21.1,18.6,22.3,17.1,22.3z M43.4,43.8c-7.1,0-12.9-5.8-12.9-12.9s5.8-12.9,12.9-12.9
	c7.1,0,12.9,5.8,12.9,12.9S50.5,43.8,43.4,43.8z"/>
</svg>
