<?xml version="1.0" encoding="utf-8"?>
<!-- Generator: Adobe Illustrator 21.1.0, SVG Export Plug-In . SVG Version: 6.00 Build 0)  -->
<svg version="1.1" id="Layer_1" xmlns="http://www.w3.org/2000/svg" xmlns:xlink="http://www.w3.org/1999/xlink" x="0px" y="0px"
	 viewBox="0 0 72.2 56.7" style="enable-background:new 0 0 72.2 56.7;" xml:space="preserve">
<g>
	<path d="M24.6,50.1c-0.5,0.7-1.5,1-2.2,0.6L19.7,49c-0.7-0.5-0.9-1.5-0.4-2.2l10.7-14.9l2.5,4.3L24.6,50.1z M48.5,48.8l-2.7,1.8
		c-0.7,0.5-1.9,0.3-2.2-0.6l-13-22.7l-0.8,0.4c-2.1,1-4.5,0.1-5.5-1.9c-1-2-2.6-5.1-5.5-10.9C15.8,9.2,19.8,4,20.6,5.2L32,22.9
		l16.9,23.4C49.4,47.3,49.2,48.3,48.5,48.8z M52,10.4l-6.2,10.1l0,0l-0.7,1.2c-0.8,1.2-2.1,2.1-3.3,2.4l-2.6,0.6l-1.3,2.3l-2.1-2.9
		l0.8-1.1l-0.6-2.6c-0.3-1.2,0-2.7,0.8-3.9l0.7-1.2l0,0l6.6-9.8c0.1-0.2,0.3-0.2,0.4-0.1l1,0.7c0.1,0.1,0.2,0.3,0.1,0.4l-6.1,9.9
		c-0.1,0.2-0.1,0.6,0.2,0.7c0.1,0.1,0.3,0.2,0.4,0.3c0.2,0.2,0.6,0.1,0.7-0.1c1.2-1.9,6.5-9.6,6.5-9.6c0.1-0.1,0.3-0.2,0.4-0.1
		l1,0.7c0.1,0.1,0.2,0.3,0.1,0.4l-6.1,9.9c-0.1,0.2-0.1,0.6,0.2,0.7c0.1,0.1,0.3,0.2,0.4,0.3c0.2,0.2,0.6,0.1,0.7-0.1
		c1.2-1.9,6.5-9.6,6.5-9.6c0.1-0.1,0.3-0.2,0.4-0.1l1,0.7C52,10.1,52.1,10.2,52,10.4z"/>
</g>
</svg>
