<?xml version="1.0" encoding="UTF-8"?>
<!-- Generator: Adobe Illustrator 21.1.0, SVG Export Plug-In . SVG Version: 6.00 Build 0)  -->
<svg version="1.1" id="Layer_1" xmlns="http://www.w3.org/2000/svg" xmlns:xlink="http://www.w3.org/1999/xlink" x="0px" y="0px" viewBox="0 0 118.9 56.7" style="enable-background:new 0 0 118.9 56.7;" xml:space="preserve">
<style type="text/css">
	.st0{stroke:#000000;stroke-width:0.5;stroke-miterlimit:10;}
	.st1{fill:#339999;}
</style>
<g>
	<path class="st0" d="M12.8,17.1h5.5l6.1,17.4h0.1l6-17.4h5.4v22.2h-3.7V22.2h-0.1L26,39.4h-3.2l-6.2-17.2h-0.1v17.2h-3.7V17.1z"/>
	<path class="st0" d="M64.8,17.1h9.8c1.6,0,2.9,0.2,3.9,0.7c1,0.5,1.8,1,2.3,1.7s0.9,1.4,1.1,2.2c0.2,0.8,0.3,1.6,0.3,2.2   s-0.1,1.4-0.3,2.2c-0.2,0.8-0.6,1.5-1.1,2.2s-1.3,1.3-2.3,1.7c-1,0.4-2.3,0.7-3.9,0.7h-5.9v8.5h-3.9V17.1z M68.7,27.7h5.7   c0.4,0,0.9-0.1,1.3-0.2c0.5-0.1,0.9-0.3,1.3-0.6c0.4-0.3,0.7-0.7,0.9-1.1c0.2-0.5,0.4-1.1,0.4-1.8c0-0.7-0.1-1.3-0.3-1.8   c-0.2-0.5-0.5-0.9-0.8-1.1c-0.4-0.3-0.8-0.5-1.2-0.6c-0.5-0.1-0.9-0.2-1.5-0.2h-5.8V27.7z"/>
	<path class="st0" d="M89.3,17.1h9.8c1.6,0,2.9,0.2,3.9,0.7c1,0.5,1.8,1,2.3,1.7s0.9,1.4,1.1,2.2c0.2,0.8,0.3,1.6,0.3,2.2   s-0.1,1.4-0.3,2.2c-0.2,0.8-0.6,1.5-1.1,2.2s-1.3,1.3-2.3,1.7c-1,0.4-2.3,0.7-3.9,0.7h-5.9v8.5h-3.9V17.1z M93.2,27.7h5.7   c0.4,0,0.9-0.1,1.3-0.2c0.5-0.1,0.9-0.3,1.3-0.6c0.4-0.3,0.7-0.7,0.9-1.1c0.2-0.5,0.4-1.1,0.4-1.8c0-0.7-0.1-1.3-0.3-1.8   c-0.2-0.5-0.5-0.9-0.8-1.1c-0.4-0.3-0.8-0.5-1.2-0.6c-0.5-0.1-0.9-0.2-1.5-0.2h-5.8V27.7z"/>
</g>
<g>
	<g>
		<path class="st1" d="M58.4,23.4c-0.4-3.6-3.4-6.5-7-6.9c-4.8-0.5-8.9,3.2-8.9,7.9c0,0.9,0.2,1.9,0.4,2.7c0.5,1.4,2.1,5.6,3.7,9.7    c1.3,3.5,6.4,3.5,7.7,0c1.6-4.2,3.2-8.3,3.7-9.7C58.4,25.9,58.5,24.7,58.4,23.4z M50.4,28.6c-2.4,0-4.3-1.9-4.3-4.3    s1.9-4.3,4.3-4.3c2.4,0,4.3,1.9,4.3,4.3S52.8,28.6,50.4,28.6z"/>
	</g>
</g>
</svg>