<?xml version="1.0" encoding="utf-8"?>
<!-- Generator: Adobe Illustrator 21.1.0, SVG Export Plug-In . SVG Version: 6.00 Build 0)  -->
<svg version="1.1" id="Layer_1" xmlns="http://www.w3.org/2000/svg" xmlns:xlink="http://www.w3.org/1999/xlink" x="0px" y="0px"
	 viewBox="0 0 72.2 56.7" style="enable-background:new 0 0 72.2 56.7;" xml:space="preserve">
<style type="text/css">
	.st0{fill:#010101;}
</style>
<g>
	<g>
		<path class="st0" d="M49.3,20.8c-0.7-6.1-5.6-10.9-11.7-11.5c-8-0.9-14.8,5.4-14.8,13.2c0,1.5,0.3,3.1,0.7,4.5
			c0.9,2.3,3.5,9.3,6.1,16.2c2.2,5.9,10.6,5.9,12.8,0c2.6-6.9,5.3-13.8,6.1-16.2C49.3,25,49.5,23,49.3,20.8z M36.1,29.5
			c-3.9,0-7.1-3.2-7.1-7.1s3.2-7.1,7.1-7.1s7.1,3.2,7.1,7.1S40,29.5,36.1,29.5z"/>
	</g>
</g>
</svg>
